HIERARCHY
ROOT Hips
{
	OFFSET 0.000000 0.000000 0.000000
	CHANNELS 6 Xposition Yposition Zposition Xrotation Yrotation Zrotation
	JOINT LeftUpLeg_virtual
	{
		OFFSET 0.000000 0.000000 0.000000
		CHANNELS 3 Xrotation Yrotation Zrotation
		JOINT LeftUpLeg
		{
			OFFSET 15.427100 -6.655098 0.678600
			CHANNELS 3 Xrotation Yrotation Zrotation
			JOINT LeftLeg
			{
				OFFSET 4.081073 -39.591068 13.024000
				CHANNELS 3 Xrotation Yrotation Zrotation
				JOINT LeftFoot
				{
					OFFSET -4.081074 -37.707932 -15.979700
					CHANNELS 3 Xrotation Yrotation Zrotation
					JOINT LeftToeBase
					{
						OFFSET 5.346399 -15.068900 20.645000
						CHANNELS 3 Xrotation Yrotation Zrotation
						JOINT LeftToe_End
						{
							OFFSET 2.754700 0.931300 11.300900
							CHANNELS 3 Xrotation Yrotation Zrotation
							End Site
							{
								OFFSET 0 0 0
							}
						}
					}
				}
			}
		}
	}
	JOINT RightUpLeg_virtual
	{
		OFFSET 0.000000 0.000000 0.000000
		CHANNELS 3 Xrotation Yrotation Zrotation
		JOINT RightUpLeg
		{
			OFFSET -15.569500 -6.655098 0.678600
			CHANNELS 3 Xrotation Yrotation Zrotation
			JOINT RightLeg
			{
				OFFSET -4.081825 -39.591045 13.023800
				CHANNELS 3 Xrotation Yrotation Zrotation
				JOINT RightFoot
				{
					OFFSET 4.081824 -37.707954 -15.979600
					CHANNELS 3 Xrotation Yrotation Zrotation
					JOINT RightToeBase
					{
						OFFSET -5.346400 -15.068900 20.645000
						CHANNELS 3 Xrotation Yrotation Zrotation
						JOINT RightToe_End
						{
							OFFSET -2.754700 0.931300 11.300900
							CHANNELS 3 Xrotation Yrotation Zrotation
							End Site
							{
								OFFSET 0 0 0
							}
						}
					}
				}
			}
		}
	}
	JOINT Spine_virtual
	{
		OFFSET 0.000000 0.000000 0.000000
		CHANNELS 3 Xrotation Yrotation Zrotation
		JOINT Spine
		{
			OFFSET -0.279200 12.230698 -2.892100
			CHANNELS 3 Xrotation Yrotation Zrotation
			JOINT Spine1
			{
				OFFSET -0.232667 10.192268 -1.242267
				CHANNELS 3 Xrotation Yrotation Zrotation
				JOINT Spine1_split
				{
					OFFSET -0.232667 10.192268 -1.242267
					CHANNELS 3 Xrotation Yrotation Zrotation
					JOINT Spine2
					{
						OFFSET -0.232667 10.192268 -1.242267
						CHANNELS 3 Xrotation Yrotation Zrotation
						JOINT Neck_virtual
						{
							OFFSET 0.000000 0.000000 0.000000
							CHANNELS 3 Xrotation Yrotation Zrotation
							JOINT Neck
							{
								OFFSET -0.418800 17.814194 8.416900
								CHANNELS 3 Xrotation Yrotation Zrotation
								JOINT Head
								{
									OFFSET 0.000000 7.031097 3.806800
									CHANNELS 3 Xrotation Yrotation Zrotation
									JOINT HeadTop_End
									{
										OFFSET 0.000000 24.646606 12.978600
										CHANNELS 3 Xrotation Yrotation Zrotation
										End Site
										{
											OFFSET 0 0 0
										}
									}
								}
							}
						}
						JOINT LeftShoulder_virtual
						{
							OFFSET 0.000000 0.000000 0.000000
							CHANNELS 3 Xrotation Yrotation Zrotation
							JOINT LeftShoulder
							{
								OFFSET 8.476499 7.247704 -3.868750
								CHANNELS 3 Xrotation Yrotation Zrotation
								JOINT LeftShoulder_split
								{
									OFFSET 8.476499 7.247704 -3.868750
									CHANNELS 3 Xrotation Yrotation Zrotation
									JOINT LeftArm
									{
										OFFSET 9.308998 -2.777710 0.208600
										CHANNELS 3 Xrotation Yrotation Zrotation
										JOINT LeftForeArm
										{
											OFFSET 29.972298 0.000000 0.000000
											CHANNELS 3 Xrotation Yrotation Zrotation
											JOINT LeftHand
											{
												OFFSET 26.026505 0.000000 0.000000
												CHANNELS 3 Xrotation Yrotation Zrotation
												End Site
												{
													OFFSET 0 0 0
												}
											}
										}
									}
								}
							}
						}
						JOINT RightShoulder_virtual
						{
							OFFSET 0.000000 0.000000 0.000000
							CHANNELS 3 Xrotation Yrotation Zrotation
							JOINT RightShoulder
							{
								OFFSET -7.570500 7.247704 -3.868750
								CHANNELS 3 Xrotation Yrotation Zrotation
								JOINT RightShoulder_split
								{
									OFFSET -7.570500 7.247704 -3.868750
									CHANNELS 3 Xrotation Yrotation Zrotation
									JOINT RightArm
									{
										OFFSET -9.308998 -2.777710 0.208500
										CHANNELS 3 Xrotation Yrotation Zrotation
										JOINT RightForeArm
										{
											OFFSET -29.972300 0.000000 0.000000
											CHANNELS 3 Xrotation Yrotation Zrotation
											JOINT RightHand
											{
												OFFSET -26.026505 0.000000 0.000000
												CHANNELS 3 Xrotation Yrotation Zrotation
												End Site
												{
													OFFSET 0 0 0
												}
											}
										}
									}
								}
							}
						}
					}
				}
			}
		}
	}
}
MOTION
Frames: 10
Frame Time: 0.03333333
-0.741497 92.956009 11.705307 0.000000 0.000000 0.000000 2.795049 31.947793 -1.737490 -24.216217 7.450249 2.535603 20.890904 -17.591608 -4.137829 -2.969426 -12.075027 3.822486 -2.024943 -0.407775 -0.141755 0.000000 0.000000 0.000000 2.793261 32.530494 -1.979630 -13.805271 14.169773 3.582061 19.992850 18.978007 -2.422344 -7.300139 5.108514 -3.301992 -2.609831 -0.425771 -0.118725 0.000000 0.000000 0.000000 3.376533 34.071664 -2.582995 7.567532 1.196414 -0.622063 0.635050 0.733985 1.340730 0.483636 0.344848 0.548682 0.000000 0.000000 0.000000 1.040531 0.998359 1.517524 -3.414095 29.238711 -8.259075 -6.637168 23.787058 -3.071109 0.000000 0.000000 0.000000 1.271882 1.005463 1.737983 0.110162 -3.370980 -1.628530 4.837635 0.631855 -2.420303 -63.191537 18.378103 -19.360530 11.017172 -74.520034 13.013585 0.000000 0.000000 0.000000 1.356633 1.041874 1.393557 4.702911 6.510923 9.151620 -2.927976 -0.709413 0.836953 11.794547 21.652584 62.755409 10.544535 23.004791 -4.212044 0.000000 0.000000 0.000000 
-2.009745 93.183586 12.343796 0.000000 0.000000 0.000000 3.047412 37.249335 -2.331512 -25.281122 8.437743 3.373000 20.707587 -18.326405 -3.723863 -1.897836 -11.149328 3.499139 -2.422896 -0.472282 0.402391 0.000000 0.000000 0.000000 3.376101 37.825642 -2.726497 -12.547298 13.498753 2.419063 18.121487 16.297813 -0.613242 -7.821909 3.687699 -3.933243 -1.546032 -0.529647 0.173464 0.000000 0.000000 0.000000 3.740533 39.351479 -3.235030 7.631037 0.855357 -1.088112 0.579888 0.447273 1.357075 0.526055 0.308726 0.540912 0.000000 0.000000 0.000000 1.041053 0.729417 1.617176 -3.576212 27.451611 -8.375566 -7.534262 21.844738 -1.637881 0.000000 0.000000 0.000000 1.157544 0.746000 1.870450 0.145269 -6.618186 -0.944963 4.725288 0.562651 -2.208295 -63.157311 16.183088 -20.833221 10.306032 -72.865920 12.553191 0.000000 0.000000 0.000000 1.272496 0.754183 1.519191 4.661879 6.272406 8.727943 -3.362946 -0.585404 0.868313 10.986919 18.582510 63.332615 10.700603 23.572118 -4.431031 0.000000 0.000000 0.000000 
-3.289889 93.317207 12.574310 0.000000 0.000000 0.000000 3.467123 42.206867 -3.117794 -26.640890 9.314577 5.013649 20.005826 -17.693245 -3.281986 -1.335570 -9.702787 3.030144 -2.186491 -0.516278 0.812588 0.000000 0.000000 0.000000 4.094853 42.567836 -3.631381 -12.010612 12.436181 1.592537 17.340378 13.516904 0.815608 -8.448235 2.190697 -3.928899 -0.799562 -0.475875 0.373505 0.000000 0.000000 0.000000 4.362239 44.047245 -4.101515 7.705099 0.631376 -1.597557 0.576680 0.244956 1.424074 0.586539 0.205785 0.588355 0.000000 0.000000 0.000000 1.083157 0.551572 1.750950 -3.900853 25.736617 -8.333075 -8.374193 19.826338 -0.185153 0.000000 0.000000 0.000000 1.100915 0.570953 2.033807 0.239175 -9.407197 -0.246596 4.448197 0.347741 -1.884841 -63.191469 14.092946 -22.202052 9.592981 -71.336183 12.130653 0.000000 0.000000 0.000000 1.197500 0.558596 1.695259 4.599638 6.133259 8.338626 -3.555275 -0.475406 0.811130 9.507038 14.582676 63.941567 10.817026 24.297039 -4.631100 0.000000 0.000000 0.000000 
-4.551884 93.367531 12.501034 0.000000 0.000000 0.000000 4.054780 46.682649 -4.066129 -28.119926 9.674815 7.454083 18.983862 -15.824566 -2.880286 -1.043303 -7.811789 2.429658 -1.105004 -0.523940 0.878844 0.000000 0.000000 0.000000 4.818633 46.770547 -4.631093 -12.018402 11.337060 1.305662 17.503062 11.007895 1.712549 -9.079676 0.786520 -3.216949 -0.704341 -0.294046 0.382013 0.000000 0.000000 0.000000 5.137033 48.104435 -5.141794 7.784858 0.502816 -2.085753 0.631353 0.105668 1.552822 0.755947 0.121357 0.639240 0.000000 0.000000 0.000000 1.173606 0.439035 1.917362 -4.271547 24.131101 -8.162563 -9.101412 17.838902 1.188425 0.000000 0.000000 0.000000 1.107575 0.446745 2.224365 0.376448 -11.646855 0.419613 3.982710 -0.046978 -1.641574 -63.436830 12.217715 -23.513666 9.068886 -69.933364 11.907442 0.000000 0.000000 0.000000 1.141424 0.435380 1.919598 4.542552 6.102816 8.013210 -3.510015 -0.366153 0.694789 7.379338 9.833508 64.482607 10.802294 24.989779 -4.725741 0.000000 0.000000 0.000000 
-5.703217 93.327026 12.214287 0.000000 0.000000 0.000000 4.714679 50.589067 -5.056311 -29.347875 9.479408 10.348084 18.468292 -12.892235 -2.453049 -0.809305 -5.474494 1.940705 0.494790 -0.447920 0.553432 0.000000 0.000000 0.000000 5.456195 50.449782 -5.602398 -12.230089 10.302650 1.586368 18.323868 8.852017 2.054005 -9.629093 -0.617058 -2.171282 -1.319481 -0.076889 0.272362 0.000000 0.000000 0.000000 5.848898 51.519956 -6.178838 7.872791 0.417686 -2.524990 0.725659 -0.007282 1.727535 0.929503 0.102403 0.701265 0.000000 0.000000 0.000000 1.299075 0.346705 2.114570 -4.525068 22.707845 -7.933962 -9.690816 16.055401 2.360702 0.000000 0.000000 0.000000 1.155343 0.330942 2.415555 0.519272 -13.295172 0.949846 3.401553 -0.603260 -1.448808 -63.914103 10.619539 -24.748306 8.809256 -68.524761 11.918978 0.000000 0.000000 0.000000 1.104617 0.343911 2.176492 4.507062 6.124091 7.736695 -3.374236 -0.290276 0.415014 4.752010 4.643672 64.845140 10.582605 25.491229 -4.642214 0.000000 0.000000 0.000000 
-6.633244 93.172379 11.758495 0.000000 0.000000 0.000000 5.361890 53.999117 -5.922937 -29.997661 8.887492 13.241062 18.903655 -9.157711 -1.933201 -0.544724 -2.868294 1.742684 1.948900 -0.306343 -0.058960 0.000000 0.000000 0.000000 5.965520 53.642325 -6.451594 -12.340014 9.332600 2.198719 19.437310 7.014668 1.906102 -10.367460 -1.959015 -1.280659 -1.988992 0.118399 0.162367 0.000000 0.000000 0.000000 6.241782 54.427401 -6.930248 7.977179 0.325237 -2.896711 0.835143 -0.131853 1.938862 0.955031 0.169094 0.749437 0.000000 0.000000 0.000000 1.421871 0.229715 2.334959 -4.574416 21.506517 -7.744432 -10.129361 14.651770 3.250987 0.000000 0.000000 0.000000 1.232007 0.192186 2.594370 0.635618 -14.423736 1.260158 2.758430 -1.107744 -1.359005 -64.472007 9.333805 -25.893484 8.766723 -67.006717 12.086472 0.000000 0.000000 0.000000 1.085066 0.234272 2.450340 4.506626 6.151525 7.496343 -3.171906 -0.285302 0.069769 1.915008 -0.611443 64.954669 10.143750 25.774711 -4.369452 0.000000 0.000000 0.000000 
-7.332340 92.952118 11.134125 0.000000 0.000000 0.000000 5.734538 56.911715 -6.443109 -29.778115 8.360631 15.751273 20.249054 -5.097647 -1.400189 -0.424520 -0.427169 1.727563 2.701384 -0.088111 -0.770419 0.000000 0.000000 0.000000 6.192777 56.288149 -6.989319 -12.251123 8.274625 2.757415 20.590116 5.396195 1.411605 -11.243330 -3.192587 -1.041541 -2.249291 0.268702 0.146698 0.000000 0.000000 0.000000 6.267748 56.979600 -7.278954 8.116461 0.191698 -3.204255 0.935898 -0.286678 2.165306 0.907546 0.371042 0.709891 0.000000 0.000000 0.000000 1.498908 0.058733 2.559845 -4.388118 20.533056 -7.659395 -10.377065 13.712188 3.817379 0.000000 0.000000 0.000000 1.297804 -0.000470 2.751442 0.709994 -15.151299 1.319282 2.189313 -1.482884 -1.257136 -64.962790 8.367926 -26.961876 8.823053 -65.370443 12.292309 0.000000 0.000000 0.000000 1.080501 0.076483 2.721610 4.550464 6.103030 7.259835 -2.961198 -0.349949 -0.283025 -0.776190 -5.418017 64.816774 9.571392 25.940544 -3.968045 0.000000 0.000000 0.000000 
-7.749085 92.704926 10.360420 0.000000 0.000000 0.000000 5.700430 59.409416 -6.455539 -28.909373 8.281294 17.558280 21.969143 -1.228294 -0.998700 -0.591283 1.313507 1.656881 2.810834 0.180368 -1.420205 0.000000 0.000000 0.000000 6.122694 58.547903 -7.097028 -12.105972 7.050030 2.889680 21.557131 4.022287 0.777457 -11.912935 -4.289051 -1.284418 -2.136699 0.357919 0.234034 0.000000 0.000000 0.000000 5.850901 59.278761 -7.078489 8.303142 0.008893 -3.451419 1.013372 -0.478367 2.382859 0.769516 0.516491 0.612727 0.000000 0.000000 0.000000 1.504760 -0.164362 2.774887 -4.028058 19.765495 -7.679870 -10.372280 13.224923 4.066581 0.000000 0.000000 0.000000 1.344476 -0.239032 2.877839 0.739199 -15.627818 1.148605 1.846339 -1.641047 -1.088111 -65.184839 7.702158 -27.989658 8.932760 -63.772745 12.474536 0.000000 0.000000 0.000000 1.082393 -0.129780 2.977516 4.638413 5.951617 7.016150 -2.764929 -0.450145 -0.565461 -3.005078 -9.347094 64.580347 8.973304 26.114397 -3.522482 0.000000 0.000000 0.000000 
-7.902700 92.517914 9.358528 0.000000 0.000000 0.000000 5.225265 61.569900 -5.936692 -27.681065 8.856887 18.601622 23.260735 1.814379 -0.822008 -0.887313 1.829149 1.027109 2.589644 0.441460 -1.857787 0.000000 0.000000 0.000000 5.592052 60.561471 -6.646282 -12.035704 5.730155 2.438616 22.094856 3.078830 0.160095 -12.069402 -5.078563 -1.512400 -1.878480 0.388892 0.320730 0.000000 0.000000 0.000000 5.126223 61.429116 -6.442170 8.528021 -0.203972 -3.620791 1.069230 -0.695446 2.570564 0.621139 0.563711 0.482994 0.000000 0.000000 0.000000 1.431478 -0.412471 2.949346 -3.613004 19.133537 -7.785751 -10.065517 13.038038 4.077600 0.000000 0.000000 0.000000 1.359356 -0.502077 2.972758 0.740641 -16.024320 0.862064 1.797531 -1.681219 -0.825604 -65.091846 7.304139 -29.058459 9.056911 -62.499503 12.614834 0.000000 0.000000 0.000000 1.095349 -0.361953 3.202211 4.773172 5.696352 6.765044 -2.619467 -0.501318 -0.737292 -4.524755 -12.093320 64.438887 8.484662 26.257583 -3.139147 0.000000 0.000000 0.000000 
-7.847701 92.497482 8.298927 0.000000 0.000000 0.000000 4.476785 63.404673 -5.020756 -26.363531 9.955742 18.998885 23.715472 3.803334 -0.912647 -0.999941 1.110887 -0.470774 2.608202 0.650236 -2.045173 0.000000 0.000000 0.000000 4.809701 62.355672 -5.791585 -12.020936 4.384112 1.432033 22.245217 2.672304 -0.337258 -11.522633 -5.546557 -1.271078 -1.853443 0.382434 0.331728 0.000000 0.000000 0.000000 4.436644 63.429433 -5.675188 8.755807 -0.423217 -3.700375 1.113670 -0.911094 2.704841 0.538280 0.606766 0.359484 0.000000 0.000000 0.000000 1.316411 -0.646249 3.062105 -3.237946 18.573764 -7.923684 -9.481937 12.972745 3.942149 0.000000 0.000000 0.000000 1.353943 -0.762620 3.031494 0.732712 -16.401557 0.580239 2.005512 -1.734523 -0.483580 -64.747851 7.110524 -30.177357 9.217114 -61.793001 12.739588 0.000000 0.000000 0.000000 1.126593 -0.579241 3.376702 4.933763 5.372407 6.506454 -2.525942 -0.457643 -0.789968 -5.274573 -13.535311 64.539120 8.200192 26.282790 -2.882918 0.000000 0.000000 0.000000 
